<?xml version="1.0" encoding="UTF-8"?>
<svg width="1024px" height="1024px" viewBox="0 0 1024 1024" version="1.1" xmlns="http://www.w3.org/2000/svg" xmlns:xlink="http://www.w3.org/1999/xlink">
    <title>1024</title>
    <g id="1024" stroke="none" stroke-width="1" fill="none" fill-rule="evenodd">
        <g id="编组-3备份" transform="translate(62.9996, 185)">
            <g id="编组备份-3" transform="translate(0, 0)">
                <path d="M688.796534,359.040975 C706.229913,363.004229 724.372512,365.096754 743.002945,365.096754 C753.303898,365.096754 763.455715,364.457049 773.420976,363.21513 L773.747695,366.867557 L773.5349,368.561772 C770.401749,392.084595 764.772834,414.816578 756.923672,436.481721 C753.11586,436.61316 749.299259,436.681115 745.466817,436.681115 C719.164338,436.681115 693.608076,433.480278 669.164943,427.446196 C677.214076,409.47659 683.132455,390.341721 686.60484,370.365355 C687.988145,366.848294 688.797777,363.22655 688.797777,359.473936 L688.796534,359.040975 Z M153.287253,218.340557 C179.486507,218.340557 204.945391,221.51632 229.301293,227.504564 C219.568881,248.668112 212.801482,271.480335 209.526708,295.407651 L209.956413,295.468585 C209.956333,295.494962 209.956292,295.521346 209.956292,295.547736 L209.957535,295.980696 C192.524156,292.017443 174.381557,289.924918 155.751124,289.924918 C145.450172,289.924918 135.298354,290.564623 125.333093,291.806542 L125.250695,290.886557 L125.338524,289.995522 C127.955859,265.258674 133.325738,241.344903 141.135504,218.567444 C145.169159,218.417122 149.219281,218.340557 153.287253,218.340557 Z" id="形状结合" fill-opacity="0.740712413" fill="#545454"></path>
                <path d="M447.039267,0 C559.696977,0 659.021992,57.11039 717.667511,143.97175 L774.179419,200.396871 C760.460245,203.10218 746.336503,204.513856 731.914852,204.513856 C708.092969,204.513856 685.083931,200.662114 663.368436,193.490645 C653.82606,190.339308 644.310482,183.181585 635.129585,175.809279 L633.719822,174.673897 C629.945513,171.626497 626.230892,168.575669 622.597598,165.787912 C608.325923,150.42584 592.074918,136.930454 574.25318,125.702447 L573.882643,125.35279 L573.885565,125.471304 C536.765025,102.177849 492.858526,88.709434 445.80776,88.709434 C323.726514,88.709434 222.813462,179.383063 206.682244,297.087327 C233.613394,300.812188 259.459602,307.911076 283.787763,317.944377 C290.647169,232.389184 362.220014,165.098113 449.502282,165.098113 C507.161664,165.098113 557.965404,194.464152 587.78624,239.06245 C628.729305,271.257539 680.284456,290.444683 736.297909,290.444683 C773.45506,290.444683 808.650342,282.001418 840.088492,266.919452 L899.000804,322.139489 C860.827857,345.074083 817.464955,360.183306 771.104733,365.263165 C751.951766,527.313679 614.166553,653 447.039267,653 C338.854133,653 242.964076,600.334227 183.586443,519.231201 C183.294157,518.984627 183.011762,518.725888 182.739752,518.454357 L123.464318,459.283385 C123.242406,459.061863 123.083398,458.801181 122.987314,458.52354 C130.103874,457.28447 137.322293,456.39526 144.629163,455.871252 L147.311729,455.872075 L147.237265,455.699972 C151.543197,455.443179 155.879083,455.313151 160.242018,455.313151 C189.797275,455.313151 218.111303,461.280066 244.280656,472.199513 C250.219994,474.677766 254.785446,479.159596 259.286216,483.844897 L260.185895,484.784137 L260.635815,485.254791 L261.595546,486.25685 C261.633042,486.295885 261.67055,486.334913 261.708069,486.373933 C277.907238,505.47695 297.027184,522.022141 318.375104,535.32457 L318.803307,535.75149 L320.195703,537.166685 L320.191453,536.445268 C356.785256,558.801101 399.792835,571.683019 445.80776,571.683019 C567.990353,571.683019 668.969591,480.85878 684.973275,363.011929 C660.727704,359.050674 637.409796,352.333405 615.341586,343.189077 C609.315322,429.563119 537.36907,497.758491 449.502282,497.758491 C389.917083,497.758491 337.65313,466.398048 308.301035,419.27497 C267.842071,388.638559 217.431067,370.465873 162.777562,370.465873 C125.603291,370.465873 90.3917976,378.873394 58.939181,393.891508 L5.68434189e-14,338.905452 C36.5638185,317.040743 77.8870844,302.318599 122.044686,296.665019 L122.034317,296.66253 C137.09663,130.325758 276.855362,0 447.039267,0 Z M445.80776,248.879245 C400.918344,248.879245 364.528283,285.286098 364.528283,330.196226 C364.528283,375.106355 400.918344,411.513208 445.80776,411.513208 C490.697176,411.513208 527.087237,375.106355 527.087237,330.196226 C527.087237,285.286098 490.697176,248.879245 445.80776,248.879245 Z" id="形状结合" fill-opacity="0.749180507" fill="#485EF4"></path>
            </g>
        </g>
    </g>
</svg>