<?xml version="1.0" encoding="UTF-8"?>
<svg width="1024px" height="1024px" viewBox="0 0 1024 1024" version="1.1" xmlns="http://www.w3.org/2000/svg" xmlns:xlink="http://www.w3.org/1999/xlink">
    <title>1024备份</title>
    <defs>
        <linearGradient x1="50%" y1="0%" x2="50%" y2="100%" id="linearGradient-1">
            <stop stop-color="#AEBBFB" offset="0%"></stop>
            <stop stop-color="#7686F6" offset="98.9401224%"></stop>
        </linearGradient>
    </defs>
    <g id="1024备份" stroke="none" stroke-width="1" fill="none" fill-rule="evenodd">
        <g id="编组-3" transform="translate(91, 77)">
            <g id="编组-2备份-2" transform="translate(0, 0)">
                <g id="编组备份-2" transform="translate(-0, 0)">
                    <path d="M645.123107,335.947969 C661.451156,339.656324 678.44346,341.614267 695.892668,341.614267 C705.540383,341.614267 715.048422,341.015721 724.381737,339.853707 L724.687607,343.271214 L724.488617,344.856454 C721.554066,366.866179 716.282063,388.135917 708.930646,408.407436 C705.3653,408.530827 701.79023,408.594427 698.200319,408.594427 C673.565713,408.594427 649.63,405.599506 626.736821,399.953607 C634.275131,383.139457 639.818087,365.235886 643.070286,346.544986 C644.365949,343.253623 645.124352,339.864597 645.124352,336.3531 L645.123107,335.947969 Z M143.567612,204.297214 C168.106059,204.297214 191.951059,207.268799 214.762978,212.872041 C205.646902,232.673426 199.308432,254.018715 196.24124,276.40741 L196.643692,276.464446 C196.643617,276.489138 196.643579,276.513836 196.643579,276.53854 L196.644824,276.943672 C180.316775,273.235317 163.324471,271.277374 145.875263,271.277374 C136.227548,271.277374 126.719509,271.87592 117.386194,273.037934 L117.313607,272.228214 L117.400094,271.345562 C119.850096,248.199176 124.878397,225.822986 132.192122,204.510086 C135.968228,204.368778 139.75957,204.297214 143.567612,204.297214 Z" id="形状结合" fill-opacity="0.740712413" fill="#545454"></path>
                    <path d="M418.694423,0 C524.207113,0 617.232937,53.4350951 672.160472,134.707048 L725.092506,187.50762 C712.24316,190.03894 699.014896,191.359825 685.507609,191.359825 C663.196142,191.359825 641.645981,187.755822 621.307346,181.045611 C608.222166,176.728492 595.190788,164.375687 583.118218,155.122113 C569.752882,140.74909 554.533057,128.122578 537.842263,117.617364 L537.495372,117.290298 L537.498757,117.401591 C502.731687,95.6060804 461.608814,83.0037736 417.540999,83.0037736 C303.200452,83.0037736 208.68587,167.845117 193.577198,277.97854 C218.801038,281.464416 243.008982,288.106906 265.795063,297.495181 C272.218195,217.442342 339.253036,154.479245 421.001271,154.479245 C475.00528,154.479245 522.588208,181.957004 550.518165,223.687444 C588.865898,253.811176 637.151577,271.763708 689.612761,271.763708 C724.414213,271.763708 757.378164,263.863396 786.823143,249.751303 L841.998921,301.420334 C806.246577,322.879526 765.633446,337.016785 722.213083,341.769931 C704.274467,493.397298 575.225312,611 418.694423,611 C317.326592,611 227.483851,561.680631 171.876357,485.740357 C171.539353,485.463426 171.214322,485.169598 170.902883,484.859012 L115.856558,429.96332 C115.58326,429.690769 115.405249,429.358833 115.322583,429.008923 C121.941519,427.862014 128.654763,427.038028 135.449683,426.550914 L137.971363,426.551976 L137.902271,426.389958 C141.934842,426.149722 145.995464,426.028078 150.081414,426.028078 C177.762734,426.028078 204.281525,431.61121 228.791623,441.828335 C234.954967,444.397547 239.538682,449.268131 244.210544,454.149192 L245.113011,455.098258 C260.288364,472.967268 278.194566,488.446784 298.187128,500.892646 L298.504901,501.207655 L299.893401,502.617003 L299.889745,501.942148 C334.163246,522.859932 374.443801,534.913208 417.540999,534.913208 C531.976763,534.913208 626.553528,449.930502 641.54238,339.663248 C618.834655,335.957215 596.995146,329.67202 576.3261,321.115861 C570.68161,401.934092 503.297011,465.743396 421.001271,465.743396 C365.193127,465.743396 316.242254,436.399049 288.751468,392.30565 C250.857935,363.641465 203.643767,346.638052 152.456193,346.638052 C117.639139,346.638052 84.6603908,354.504724 55.2021405,368.556743 L5.68434189e-14,317.107231 C34.2455188,296.648919 72.9486959,282.873768 114.306486,277.583895 L114.296252,277.581646 C128.403541,121.943404 259.300941,0 418.694423,0 Z M417.540999,232.871698 C375.497775,232.871698 341.415007,266.936915 341.415007,308.958491 C341.415007,350.980066 375.497775,385.045283 417.540999,385.045283 C459.584223,385.045283 493.66699,350.980066 493.66699,308.958491 C493.66699,266.936915 459.584223,232.871698 417.540999,232.871698 Z" id="形状结合" fill-opacity="0.749180507" fill="#485EF4"></path>
                </g>
            </g>
            <path d="M268.400175,722.634814 L251.008022,866.399878 L203.584697,866.399878 C200.992078,848.849057 198.003364,825.736863 194.618556,797.063299 C193.466281,809.630554 191.845894,822.34226 189.757395,835.198418 L184.896234,866.399878 L137.472909,866.399878 L119.000498,722.634814 L156.593475,722.634814 C156.881544,726.390546 160.050301,753.800162 166.099745,804.863664 C166.531849,799.663421 169.772622,772.253804 175.822067,722.634814 L212.010709,722.634814 L220.868825,804.863664 C222.237151,780.884764 225.549942,753.475147 230.807198,722.634814 L268.400175,722.634814 Z M374.265457,773.120511 L374.265457,808.330493 C374.265457,821.258876 373.617302,830.738487 372.320992,836.769324 C371.024683,842.800162 368.252021,848.433759 364.003006,853.670116 C359.753991,858.906472 354.298688,862.770542 347.637098,865.262325 C340.975507,867.754108 333.323679,869 324.681616,869 C315.031311,869 306.857359,867.934672 300.15976,865.804017 C293.46216,863.673362 288.258918,860.459322 284.550032,856.161899 C280.841146,851.864476 278.194514,846.664232 276.610136,840.561169 C275.025758,834.458105 274.233568,825.30351 274.233568,813.097383 L274.233568,776.262325 C274.233568,762.900588 275.673912,752.463989 278.5546,744.952526 C281.435288,737.441063 286.620526,731.410225 294.110315,726.860012 C301.600104,722.309799 311.178391,720.034693 322.845177,720.034693 C332.639516,720.034693 341.047524,721.497261 348.069201,724.422398 C355.090878,727.347535 360.510172,731.157436 364.327083,735.8521 C368.143995,740.546764 370.754618,745.385879 372.158954,750.369446 C373.563289,755.353013 374.265457,762.936701 374.265457,773.120511 Z M330.623035,762.286671 C330.623035,754.919659 330.22694,750.279164 329.434751,748.365186 C328.642562,746.451207 326.950157,745.494218 324.357538,745.494218 C321.764919,745.494218 320.036506,746.451207 319.1723,748.365186 C318.308094,750.279164 317.87599,754.919659 317.87599,762.286671 L317.87599,827.181376 C317.87599,833.970582 318.308094,838.3944 319.1723,840.45283 C320.036506,842.51126 321.728911,843.540475 324.249512,843.540475 C326.842132,843.540475 328.55254,842.601542 329.380738,840.723676 C330.208936,838.845811 330.623035,834.801177 330.623035,828.589775 L330.623035,762.286671 Z M433.571619,691 L433.571619,866.399878 L388.632888,866.399878 L388.632888,691 L433.571619,691 Z M494.174091,691 L494.174091,713.859404 L449.23536,713.859404 L449.23536,691 L494.174091,691 Z M494.174091,722.634814 L494.174091,866.399878 L449.23536,866.399878 L449.23536,722.634814 L494.174091,722.634814 Z M548.835145,778.320755 L507.893368,778.320755 L507.893368,768.678637 C507.893368,757.555894 509.171673,748.979103 511.728284,742.948265 C514.284894,736.917427 519.416119,731.590789 527.12196,726.968351 C534.8278,722.345912 544.83819,720.034693 557.153131,720.034693 C571.916657,720.034693 583.043314,722.652871 590.533103,727.889227 C598.022891,733.125583 602.523966,739.553662 604.036327,747.173463 C605.548688,754.793264 606.304869,770.484277 606.304869,794.2465 L606.304869,866.399878 L563.850731,866.399878 L563.850731,853.615946 C561.186094,858.743964 557.747273,862.589978 553.534267,865.153987 C549.321261,867.717996 544.298061,869 538.464668,869 C530.830845,869 523.827173,866.851288 517.453651,862.553865 C511.080129,858.256441 507.893368,848.849057 507.893368,834.33171 L507.893368,822.522824 C507.893368,811.761209 509.585772,804.43031 512.97058,800.530128 C516.355389,796.629945 524.745392,792.079732 538.140591,786.879489 C552.472013,781.245892 560.141845,777.454047 561.150086,775.503956 C562.158327,773.553865 562.662447,769.581457 562.662447,763.586732 C562.662447,756.075269 562.104314,751.181984 560.988047,748.906878 C559.87178,746.631771 558.017338,745.494218 555.424718,745.494218 C552.472013,745.494218 550.635575,746.451207 549.915403,748.365186 C549.195231,750.279164 548.835145,755.244674 548.835145,763.261716 L548.835145,778.320755 Z M562.662447,798.038344 C555.676779,803.166362 551.625811,807.463786 550.509545,810.930615 C549.393278,814.397444 548.835145,819.38101 548.835145,825.881315 C548.835145,833.320552 549.321261,838.123554 550.293493,840.290323 C551.265725,842.457091 553.192185,843.540475 556.072873,843.540475 C558.809527,843.540475 560.591952,842.691824 561.42015,840.994522 C562.248348,839.297221 562.662447,834.83729 562.662447,827.614729 L562.662447,798.038344 Z M665.719057,722.634814 L664.962877,735.8521 C668.131634,730.579631 672.002558,726.625279 676.57565,723.989044 C681.148742,721.35281 686.424002,720.034693 692.401429,720.034693 C699.891218,720.034693 706.01268,721.80422 710.765815,725.343274 C715.51895,728.882329 718.579681,733.34226 719.948008,738.723068 C721.316334,744.103875 722.000498,753.077906 722.000498,765.645161 L722.000498,866.399878 L678.358076,866.399878 L678.358076,766.836884 C678.358076,756.941976 678.033998,750.911138 677.385844,748.74437 C676.737689,746.577602 674.937259,745.494218 671.984554,745.494218 C668.887814,745.494218 666.94335,746.74011 666.151161,749.231893 C665.358971,751.723676 664.962877,758.386488 664.962877,769.220329 L664.962877,866.399878 L621.320455,866.399878 L621.320455,722.634814 L665.719057,722.634814 Z" id="形状结合" fill="url(#linearGradient-1)" fill-rule="nonzero"></path>
        </g>
    </g>
</svg>